<?xml version="1.0" encoding="utf-8"?>
<!-- Svg Vector Icons : http://www.onlinewebfonts.com/icon -->
<!DOCTYPE svg PUBLIC "-//W3C//DTD SVG 1.1//EN" "http://www.w3.org/Graphics/SVG/1.1/DTD/svg11.dtd">
<svg version="1.1" xmlns="http://www.w3.org/2000/svg" xmlns:xlink="http://www.w3.org/1999/xlink" x="0px" y="0px" viewBox="0 0 1000 1000" enable-background="new 0 0 1000 1000" xml:space="preserve">
<metadata> Svg Vector Icons : http://www.onlinewebfonts.com/icon </metadata>
<g><path d="M990,811.9c0,21-17.1,38.1-38.1,38.1H48.1c-21,0-38.1-17.1-38.1-38.1V188.1c0-21,17.1-38.1,38.1-38.1h903.8c21,0,38.1,17.1,38.1,38.1V811.9z M920,250.5c0-16.8-14.6-30.5-32.7-30.5H112.7c-18,0-32.7,13.6-32.7,30.5v499c0,16.8,14.6,30.5,32.7,30.5h774.7c18,0,32.7-13.6,32.7-30.5V250.5z"/><path d="M308.6,535.9c46.3-0.1,77.1-61.6,77.1-94.7c0-33.1-0.1-92-77.1-92c-77,0-77.1,58.9-77.1,92C231.5,474.3,262.3,536,308.6,535.9L308.6,535.9L308.6,535.9L308.6,535.9z"/><path d="M337.7,557.3"/><path d="M435.6,582.6c-19.7-15.3-76.5-40.8-76.5-40.8l-36.9,67.8l-5.5-16.1l10.1-20.4l-20.2-20.4L286.5,573l10.1,20.4l-6.5,16.5l-35.8-68.2c0,0-56.8,25.5-76.5,40.8c-19.7,15.3-28.4,61.9-28.4,61.9h315.2C464.6,644.4,458.8,600.6,435.6,582.6L435.6,582.6L435.6,582.6L435.6,582.6z"/><path d="M542,623.7V378h38.7v245.7H542z"/><path d="M622.7,623.7V378h81.9c84.9-0.7,127,39.8,126.3,121.7c3.8,86.4-37.9,127.8-125.1,124H622.7z M662.6,599.8h39.8c59.9,2.3,89.1-30.7,87.6-99c0.7-65.2-28.4-97.4-87.6-96.7h-39.8V599.8z"/></g>
</svg>